<svg width="614" height="364" viewBox="0 0 614 364" fill="none" xmlns="http://www.w3.org/2000/svg">
<path d="M85.3025 364H0L214.164 0H304.911L510 364H415.623L250.463 70.98L85.3025 364Z" fill="#ED5B00"/>
<path d="M614 98L523 116.095V364H614V98Z" fill="#ED5B00"/>
<path d="M614 0H523V106L614 88V0Z" fill="#ED5B00"/>
<path d="M225 243.579C225 257.684 235.694 266.335 241.042 268.897L225 334H280L263.958 268.897C269.306 266.335 280 257.684 280 243.579C280 225.946 267.625 216 252.042 216C236.458 216 225 225.946 225 243.579Z" fill="#ED5B00"/>
</svg>
