<svg width="105" height="35" viewBox="0 0 105 35" fill="none" xmlns="http://www.w3.org/2000/svg">
<g clip-path="url(#clip0_52_45)">
<path d="M101.109 34.9998H3.89099C1.75214 34.9998 0.00219727 33.0311 0.00219727 30.6249V4.37541C0.00219727 1.96918 1.75214 0.000488281 3.89099 0.000488281H101.109C103.248 0.000488281 104.998 1.96918 104.998 4.37541V30.6249C104.998 33.0311 103.248 34.9998 101.109 34.9998Z" fill="#100F0D"/>
<path d="M101.109 0.000488281H3.89099C1.75214 0.000488281 0.00219727 1.96919 0.00219727 4.37541V30.6249C0.00219727 33.0311 1.75214 34.9998 3.89099 34.9998H101.109C103.248 34.9998 104.998 33.0311 104.998 30.6249V4.37541C104.998 1.96919 103.248 0.000488281 101.109 0.000488281ZM101.109 0.700121C102.911 0.700121 104.376 2.34896 104.376 4.37541V30.6249C104.376 32.6514 102.911 34.3002 101.109 34.3002H3.89099C2.08971 34.3002 0.624731 32.6514 0.624731 30.6249V4.37541C0.624731 2.34896 2.08971 0.700121 3.89099 0.700121H101.109Z" fill="#A2A2A1"/>
<path d="M83.5495 25.1187H84.8922V17.0428H83.5495V25.1187ZM95.643 19.9521L94.1039 23.4532H94.0578L92.4605 19.9521H91.0142L93.4103 24.8454L92.0439 27.5675H93.4441L97.1361 19.9524L95.643 19.9521ZM88.0282 24.2014C87.5893 24.2014 86.9756 24.0038 86.9756 23.5155C86.9756 22.8922 87.7397 22.6533 88.3988 22.6533C88.9888 22.6533 89.2673 22.7674 89.6257 22.9233C89.5213 23.6714 88.8039 24.2014 88.0282 24.2014ZM88.1908 19.7755C87.2187 19.7755 86.2121 20.16 85.7955 21.0119L86.9871 21.4586C87.2418 21.0119 87.7159 20.8666 88.2139 20.8666C88.9082 20.8666 89.6141 21.2403 89.6256 21.9055V21.9885C89.3824 21.8638 88.8614 21.6768 88.2254 21.6768C86.9403 21.6768 85.6329 22.3104 85.6329 23.4948C85.6329 24.5753 86.6863 25.2715 87.8663 25.2715C88.7687 25.2715 89.2673 24.9079 89.5788 24.4817H89.6256V25.1055H90.9222V22.0091C90.9222 20.5754 89.7292 19.7755 88.1908 19.7755ZM79.8929 20.9352H77.9832V18.1672H79.8929C80.8967 18.1672 81.4665 18.9131 81.4665 19.5512C81.4665 20.177 80.8966 20.9352 79.8929 20.9352ZM79.8584 17.043H76.6412V25.1189H77.9833V22.0594H79.8584C81.3465 22.0594 82.8093 21.0925 82.8093 19.5515C82.8093 18.0107 81.3464 17.043 79.8584 17.043ZM62.3154 24.2027C61.3878 24.2027 60.6115 23.5053 60.6115 22.5482C60.6115 21.58 61.3878 20.8727 62.3154 20.8727C63.2311 20.8727 63.9498 21.5801 63.9498 22.5482C63.9498 23.5053 63.2311 24.2027 62.3154 24.2027ZM63.857 20.4042H63.8106C63.5094 20.0817 62.9295 19.7903 62.1996 19.7903C60.6691 19.7903 59.2666 20.9977 59.2666 22.5482C59.2666 24.0882 60.6691 25.285 62.1996 25.285C62.9295 25.285 63.5093 24.9935 63.8106 24.6607H63.857V25.0558C63.857 26.1073 63.2311 26.669 62.2226 26.669C61.3999 26.669 60.8898 26.1383 60.6809 25.6909L59.5103 26.128C59.8462 26.8561 60.7386 27.7515 62.2227 27.7515C63.7995 27.7515 65.1325 26.9187 65.1325 24.8893V19.9567H63.8571L63.857 20.4042ZM66.0601 25.1185H67.4042V17.0425H66.0601V25.1185ZM69.3866 22.4544C69.352 21.3928 70.3028 20.8518 70.9864 20.8518C71.5199 20.8518 71.9715 21.0912 72.1228 21.4344L69.3866 22.4544ZM73.5596 21.5384C73.3047 20.9247 72.5281 19.7903 70.94 19.7903C69.3632 19.7903 68.0534 20.9038 68.0534 22.5376C68.0534 24.0779 69.352 25.285 71.0904 25.285C72.493 25.285 73.3047 24.5152 73.6411 24.0675L72.5978 23.443C72.2499 23.901 71.7748 24.2028 71.0904 24.2028C70.4069 24.2028 69.9198 23.9217 69.6073 23.3701L73.6988 21.8508L73.5596 21.5384ZM40.9588 20.6333V21.7988H44.0654C43.9727 22.4544 43.7292 22.933 43.3582 23.2661C42.906 23.6718 42.1989 24.1195 40.9587 24.1195C39.046 24.1195 37.5507 22.7355 37.5507 21.0183C37.5507 19.3012 39.046 17.917 40.9587 17.917C41.9905 17.917 42.7438 18.2813 43.3003 18.7496L44.2163 17.9273C43.4394 17.2614 42.4079 16.7515 40.9587 16.7515C38.3385 16.7515 36.1361 18.6663 36.1361 21.0183C36.1361 23.3701 38.3385 25.285 40.9587 25.285C42.3728 25.285 43.4394 24.8687 44.2739 24.0882C45.1318 23.3181 45.3985 22.2359 45.3985 21.3615C45.3985 21.0913 45.3751 20.8415 45.3288 20.6333H40.9588ZM48.9308 24.2027C48.0032 24.2027 47.2033 23.5159 47.2033 22.5376C47.2033 21.549 48.0032 20.8728 48.9308 20.8728C49.858 20.8728 50.6579 21.549 50.6579 22.5376C50.6579 23.5159 49.858 24.2027 48.9308 24.2027ZM48.9308 19.7903C47.2378 19.7903 45.8586 20.9454 45.8586 22.5376C45.8586 24.1195 47.2378 25.285 48.9308 25.285C50.6231 25.285 52.0026 24.1195 52.0026 22.5376C52.0026 20.9454 50.6231 19.7903 48.9308 19.7903ZM55.6318 24.2027C54.7049 24.2027 53.9047 23.5159 53.9047 22.5376C53.9047 21.549 54.705 20.8728 55.6318 20.8728C56.5594 20.8728 57.3591 21.549 57.3591 22.5376C57.3591 23.5159 56.5594 24.2027 55.6318 24.2027ZM55.6318 19.7903C53.9396 19.7903 52.5603 20.9454 52.5603 22.5376C52.5603 24.1195 53.9396 25.285 55.6318 25.285C57.3248 25.285 58.704 24.1195 58.704 22.5376C58.704 20.9454 57.3248 19.7903 55.6318 19.7903Z" fill="white"/>
<path d="M18.5508 17.7477L9.08813 27.6348C9.08849 27.6368 9.0892 27.6385 9.08953 27.6406C9.37975 28.7143 10.3759 29.5048 11.5582 29.5048C12.0308 29.5048 12.4745 29.379 12.8551 29.1582L12.8853 29.1408L23.5373 23.0901L18.5508 17.7477Z" fill="#EB3131"/>
<path d="M28.1248 16.0645L28.1157 16.0584L23.517 13.4341L18.3358 17.9725L23.535 23.0897L28.1095 20.4915C28.9115 20.0653 29.4559 19.233 29.4559 18.2732C29.4559 17.3204 28.9189 16.4922 28.1248 16.0645Z" fill="#F6B60B"/>
<path d="M9.08679 8.86914C9.0299 9.07564 9 9.29193 9 9.51654V26.988C9 27.2122 9.02955 27.4292 9.08715 27.635L18.8765 18.0005L9.08679 8.86914Z" fill="#5778C5"/>
<path d="M18.6208 18.2525L23.519 13.4322L12.879 7.35962C12.4922 7.1316 12.0408 7 11.5578 7C10.3756 7 9.37803 7.79197 9.08776 8.86685C9.0874 8.8679 9.0874 8.86862 9.0874 8.86954L18.6208 18.2525Z" fill="#3BAD49"/>
<path d="M41.3348 11.0848H39.3082V11.6589H40.8268C40.7856 12.1274 40.6227 12.4952 40.3481 12.7623C40.0735 13.0295 39.7229 13.1636 39.3082 13.1636C38.8534 13.1636 38.468 12.9822 38.1522 12.6219C37.8428 12.2542 37.6854 11.7994 37.6854 11.2514C37.6854 10.7035 37.8428 10.2487 38.1522 9.88095C38.468 9.52063 38.8534 9.34044 39.3082 9.34044C39.5416 9.34044 39.7641 9.38641 39.9682 9.48708C40.1723 9.58767 40.3362 9.72811 40.4643 9.9083L40.8496 9.4672C40.6748 9.23977 40.4534 9.06585 40.1787 8.9391C39.9041 8.81234 39.6175 8.75151 39.3082 8.75151C38.7014 8.75151 38.1869 8.99253 37.7668 9.47342C37.3467 9.95548 37.1361 10.5494 37.1361 11.2514C37.1361 11.9534 37.3467 12.5487 37.7668 13.0296C38.1869 13.5103 38.7014 13.7515 39.3082 13.7515C39.9453 13.7515 40.4534 13.5178 40.8441 13.0431C41.1882 12.6481 41.3641 12.1138 41.3641 11.4453C41.3641 11.3322 41.3522 11.2116 41.3348 11.0848ZM42.1199 8.85826V13.6445H44.5611V13.0568H42.6572V11.5385H44.3745V10.9644H42.6572V9.44726H44.5611V8.85824L42.1199 8.85826ZM47.9843 9.44728V8.85826H45.111V9.44728H46.279V13.6445H46.8164V9.44728H47.9843ZM50.5857 8.85826H50.0484V13.6445H50.5857V8.85826ZM54.1322 9.44728V8.85826H51.259V9.44728H52.4269V13.6445H52.9642V9.44728H54.1322ZM59.5543 9.48083C59.1396 8.9925 58.6316 8.75146 58.0248 8.75146C57.4169 8.75146 56.909 8.99249 56.4943 9.47338C56.0796 9.94804 55.8756 10.5432 55.8756 11.2514C55.8756 11.9596 56.0796 12.5548 56.4943 13.0295C56.9089 13.5103 57.4169 13.7514 58.0248 13.7514C58.6261 13.7514 59.1396 13.5103 59.5543 13.0295C59.9689 12.5548 60.173 11.9596 60.173 11.2514C60.173 10.5494 59.9689 9.95541 59.5543 9.48083ZM56.8796 9.88091C57.189 9.52059 57.5689 9.3404 58.0248 9.3404C58.4796 9.3404 58.8596 9.5206 59.1635 9.88091C59.4728 10.235 59.6248 10.6972 59.6248 11.2514C59.6248 11.8068 59.4728 12.2677 59.1635 12.6219C58.8595 12.9822 58.4796 13.1636 58.0248 13.1636C57.5689 13.1636 57.189 12.9822 56.8796 12.6219C56.5767 12.2603 56.4248 11.8068 56.4248 11.2514C56.4248 10.6972 56.5767 10.2425 56.8796 9.88091ZM61.4495 10.6637L61.4268 9.74045H61.4495L63.5749 13.6445H64.1361V8.85821H63.5988V11.6589L63.6216 12.5821H63.5988L61.5668 8.85821H60.9122V13.6445H61.4495V10.6637Z" fill="white" stroke="white" stroke-width="0.26666" stroke-miterlimit="10"/>
</g>
<defs>
<clipPath id="clip0_52_45">
<rect width="105" height="35" fill="white"/>
</clipPath>
</defs>
</svg>
