<svg width="1024" height="1024" viewBox="0 0 1024 1024" fill="none" xmlns="http://www.w3.org/2000/svg">
<rect width="1024" height="1024" rx="150" fill="white"/>
<path d="M315.907 657H248L418.491 367H490.733L654 657H578.868L447.388 423.55L315.907 657Z" fill="#ED5B00"/>
<path d="M737 445L664 459.422V657H737V445Z" fill="#ED5B00"/>
<path d="M737 367H664V452L737 437.566V367Z" fill="#ED5B00"/>
<path d="M427 561.736C427 572.853 435.556 579.67 439.833 581.69L427 633H471L458.167 581.69C462.444 579.67 471 572.853 471 561.736C471 547.839 461.1 540 448.633 540C436.167 540 427 547.839 427 561.736Z" fill="#ED5B00"/>
</svg>
