<svg width="105" height="35" viewBox="0 0 105 35" fill="none" xmlns="http://www.w3.org/2000/svg">
<g clip-path="url(#clip0_52_10)">
<path d="M96.6385 0.00011375H8.36627C8.0445 0.00011375 7.7266 0.00011375 7.40569 0.00186375C7.13705 0.00361375 6.87056 0.0086975 6.59935 0.0129762C6.01015 0.0198903 5.42233 0.0715805 4.84101 0.167598C4.26051 0.265705 3.69819 0.450665 3.17308 0.716222C2.6486 0.984026 2.16937 1.33201 1.75278 1.74755C1.334 2.16192 0.984912 2.64088 0.718944 3.166C0.452241 3.69008 0.267309 4.25169 0.170534 4.83141C0.0728385 5.4104 0.0202678 5.99607 0.0132935 6.58316C0.00515067 6.85143 0.00429076 7.1206 0 7.38891V27.6139C0.00429076 27.8856 0.00515067 28.1488 0.0132935 28.4206C0.02027 29.0076 0.0728406 29.5932 0.170534 30.1722C0.267042 30.7523 0.451985 31.3142 0.718944 31.8385C0.984792 32.3619 1.33393 32.8389 1.75278 33.251C2.1678 33.6684 2.64733 34.0166 3.17308 34.2824C3.69819 34.5486 4.26045 34.7347 4.84101 34.8343C5.42243 34.9295 6.01019 34.9813 6.59935 34.989C6.87056 34.995 7.13705 34.9984 7.40569 34.9984C7.72659 35.0001 8.04452 35.0001 8.36627 35.0001H96.6385C96.9538 35.0001 97.2743 35.0001 97.5896 34.9984C97.857 34.9984 98.1312 34.995 98.3985 34.989C98.9866 34.9817 99.5732 34.93 100.153 34.8343C100.736 34.734 101.3 34.548 101.828 34.2824C102.353 34.0164 102.832 33.6682 103.247 33.251C103.665 32.8373 104.014 32.3606 104.284 31.8385C104.549 31.3138 104.732 30.7519 104.827 30.1722C104.925 29.5932 104.979 29.0077 104.99 28.4206C104.993 28.1488 104.993 27.8856 104.993 27.6139C105 27.296 105 26.9799 105 26.6568V8.34423C105 8.02379 105 7.70592 104.993 7.38891C104.993 7.1206 104.993 6.85143 104.99 6.58312C104.979 5.99598 104.925 5.41045 104.827 4.83137C104.732 4.25199 104.548 3.69043 104.284 3.16597C103.742 2.11341 102.883 1.25664 101.828 0.716144C101.3 0.451235 100.736 0.266324 100.153 0.167519C99.5733 0.0710787 98.9866 0.0193705 98.3985 0.0128537C98.1312 0.00858375 97.857 0.00345625 97.5896 0.00175C97.2743 0 96.9538 0.00011375 96.6385 0.00011375Z" fill="#A6A6A6"/>
<path d="M7.40993 34.2344C7.14259 34.2344 6.8817 34.231 6.61646 34.225C6.06698 34.2179 5.51878 34.1702 4.97637 34.0823C4.47059 33.9954 3.98064 33.8339 3.52265 33.6029C3.06887 33.3738 2.65498 33.0735 2.29685 32.7134C1.93353 32.3575 1.63105 31.9447 1.40139 31.4914C1.16921 31.0352 1.00852 30.5462 0.924934 30.0414C0.834665 29.499 0.785826 28.9505 0.778837 28.4007C0.773274 28.2162 0.765991 27.6018 0.765991 27.6018V7.3888C0.765991 7.3888 0.773748 6.78381 0.778881 6.60607C0.785572 6.05717 0.834128 5.50957 0.924126 4.96801C1.00787 4.46184 1.16868 3.9714 1.40099 3.51368C1.6298 3.0607 1.9306 2.64763 2.29173 2.29047C2.65245 1.92992 3.06767 1.62803 3.52222 1.39581C3.97915 1.16558 4.46819 1.00514 4.97294 0.919861C5.51713 0.831107 6.06723 0.783122 6.61862 0.776309L7.41036 0.765625H97.5853L98.3865 0.776738C98.9328 0.783212 99.4779 0.830769 100.017 0.919004C100.527 1.00535 101.021 1.16691 101.483 1.39837C102.394 1.86636 103.135 2.60677 103.602 3.51581C103.831 3.97038 103.989 4.45682 104.072 4.95862C104.163 5.50462 104.214 6.05652 104.224 6.60992C104.227 6.85772 104.227 7.1239 104.227 7.3888C104.234 7.71692 104.234 8.02924 104.234 8.34411V26.6567C104.234 26.9746 104.234 27.2848 104.227 27.5975C104.227 27.882 104.227 28.1427 104.224 28.411C104.213 28.9545 104.163 29.4966 104.074 30.0328C103.992 30.5412 103.832 31.0341 103.6 31.494C103.369 31.9424 103.068 32.3516 102.709 32.7065C102.35 33.0686 101.936 33.3707 101.481 33.6012C101.02 33.834 100.526 33.9961 100.017 34.0823C99.4748 34.1706 98.9265 34.2183 98.377 34.225C98.12 34.231 97.8509 34.2344 97.5896 34.2344L96.6384 34.2361L7.40993 34.2344Z" fill="black"/>
<path d="M21.7336 17.7633C21.7431 17.0329 21.9376 16.3169 22.2991 15.6817C22.6607 15.0464 23.1775 14.5128 23.8014 14.1302C23.405 13.5657 22.8821 13.1011 22.2742 12.7734C21.6663 12.4457 20.9901 12.2638 20.2993 12.2423C18.8259 12.088 17.3974 13.1215 16.6466 13.1215C15.8812 13.1215 14.7251 12.2576 13.4803 12.2831C12.6751 12.3091 11.8903 12.5425 11.2025 12.9608C10.5147 13.3791 9.94724 13.968 9.55548 14.67C7.85848 17.5999 9.12429 21.9058 10.7499 24.2741C11.5632 25.4337 12.5137 26.7291 13.7575 26.6832C14.9746 26.6329 15.4291 25.9093 16.8982 25.9093C18.3537 25.9093 18.7802 26.6832 20.0492 26.654C21.3552 26.6329 22.178 25.4892 22.9628 24.3185C23.5472 23.4922 23.9968 22.5789 24.2951 21.6126C23.5364 21.2925 22.8889 20.7569 22.4334 20.0724C21.9779 19.3879 21.7345 18.5848 21.7336 17.7633Z" fill="white"/>
<path d="M19.3367 10.6847C20.0488 9.83223 20.3996 8.73657 20.3147 7.63037C19.2268 7.74431 18.2219 8.2628 17.5002 9.08253C17.1473 9.48299 16.8771 9.94887 16.7049 10.4535C16.5327 10.9582 16.4619 11.4918 16.4966 12.0237C17.0408 12.0293 17.5791 11.9117 18.071 11.6798C18.563 11.4478 18.9958 11.1076 19.3367 10.6847Z" fill="white"/>
<path d="M37.1185 23.7472H32.9651L31.9677 26.6841H30.2085L34.1425 15.8184H35.9702L39.9042 26.6841H38.115L37.1185 23.7472ZM33.3953 22.392H36.6875L35.0645 17.6256H35.0191L33.3953 22.392Z" fill="white"/>
<path d="M48.4002 22.7235C48.4002 25.1853 47.0789 26.767 45.0849 26.767C44.5798 26.7933 44.0775 26.6773 43.6354 26.4322C43.1934 26.187 42.8295 25.8227 42.5854 25.381H42.5477V29.3048H40.917V18.7621H42.4954V20.0797H42.5254C42.7807 19.6401 43.1508 19.2776 43.5962 19.031C44.0416 18.7844 44.5457 18.6628 45.0549 18.6792C47.0712 18.6792 48.4002 20.2686 48.4002 22.7235ZM46.7242 22.7235C46.7242 21.1196 45.893 20.0652 44.6248 20.0652C43.3789 20.0652 42.5408 21.1418 42.5408 22.7235C42.5408 24.3197 43.3789 25.3887 44.6248 25.3887C45.893 25.3887 46.7242 24.3419 46.7242 22.7235Z" fill="white"/>
<path d="M57.144 22.7235C57.144 25.1853 55.8227 26.767 53.8287 26.767C53.3236 26.7933 52.8213 26.6773 52.3792 26.4322C51.9371 26.187 51.5732 25.8227 51.3292 25.381H51.2914V29.3048H49.6608V18.7621H51.2392V20.0797H51.2691C51.5244 19.64 51.8945 19.2776 52.3399 19.031C52.7853 18.7844 53.2895 18.6628 53.7987 18.6792C55.815 18.6792 57.144 20.2685 57.144 22.7235ZM55.4679 22.7235C55.4679 21.1196 54.6368 20.0652 53.3686 20.0652C52.1226 20.0652 51.2846 21.1418 51.2846 22.7235C51.2846 24.3197 52.1226 25.3887 53.3686 25.3887C54.6368 25.3887 55.4679 24.3419 55.4679 22.7235Z" fill="white"/>
<path d="M62.9229 23.6567C63.0437 24.7342 64.0934 25.4417 65.5279 25.4417C66.9023 25.4417 67.8912 24.7341 67.8912 23.7626C67.8912 22.9192 67.2948 22.4142 65.8826 22.0681L64.4705 21.7289C62.4696 21.247 61.5407 20.3138 61.5407 18.7997C61.5407 16.9249 63.1791 15.6372 65.5056 15.6372C67.808 15.6372 69.3864 16.9249 69.4396 18.7997H67.7935C67.6949 17.7153 66.796 17.0608 65.4824 17.0608C64.1688 17.0608 63.2699 17.723 63.2699 18.6869C63.2699 19.4551 63.8441 19.9071 65.2485 20.2531L66.449 20.5471C68.6846 21.0743 69.6135 21.9698 69.6135 23.5592C69.6135 25.592 67.9897 26.8652 65.407 26.8652C62.9906 26.8652 61.3591 25.6219 61.2537 23.6566L62.9229 23.6567Z" fill="white"/>
<path d="M73.1327 16.8872V18.762H74.6434V20.0497H73.1327V24.417C73.1327 25.0955 73.4352 25.4116 74.0993 25.4116C74.2786 25.4085 74.4577 25.3959 74.6357 25.374V26.654C74.3371 26.7097 74.0336 26.7349 73.7299 26.7292C72.1216 26.7292 71.4943 26.1268 71.4943 24.5904V20.0497H70.3392V18.762H71.4943V16.8872H73.1327Z" fill="white"/>
<path d="M75.5183 22.7234C75.5183 20.2308 76.9904 18.6646 79.2861 18.6646C81.5894 18.6646 83.0547 20.2308 83.0547 22.7234C83.0547 25.2228 81.5971 26.7822 79.2861 26.7822C76.9758 26.7822 75.5183 25.2228 75.5183 22.7234ZM81.3931 22.7234C81.3931 21.0135 80.6074 20.0044 79.2861 20.0044C77.9647 20.0044 77.1798 21.0212 77.1798 22.7234C77.1798 24.4401 77.9647 25.4415 79.2861 25.4415C80.6074 25.4415 81.3931 24.4401 81.3931 22.7234Z" fill="white"/>
<path d="M84.3992 18.762H85.9544V20.1104H85.9922C86.0974 19.6893 86.3448 19.3171 86.6928 19.0564C87.0408 18.7958 87.4681 18.6626 87.903 18.6791C88.0909 18.6785 88.2783 18.6988 88.4617 18.7398V20.2608C88.2245 20.1885 87.977 20.1553 87.729 20.1625C87.4922 20.1529 87.256 20.1946 87.0368 20.2846C86.8175 20.3746 86.6204 20.5109 86.459 20.6841C86.2976 20.8572 86.1756 21.0632 86.1016 21.2877C86.0275 21.5123 86.003 21.7502 86.0298 21.9851V26.684H84.3992L84.3992 18.762Z" fill="white"/>
<path d="M95.98 24.3572C95.7607 25.7953 94.3562 26.7822 92.5593 26.7822C90.2483 26.7822 88.8138 25.2382 88.8138 22.761C88.8138 20.2761 90.256 18.6646 92.4908 18.6646C94.6887 18.6646 96.0709 20.1702 96.0709 22.5721V23.1293H90.4599V23.2275C90.434 23.5191 90.4706 23.8128 90.5673 24.0892C90.664 24.3655 90.8185 24.6182 91.0207 24.8304C91.2228 25.0427 91.4679 25.2096 91.7397 25.3201C92.0114 25.4306 92.3037 25.4822 92.597 25.4714C92.9824 25.5074 93.3691 25.4184 93.6996 25.2177C94.0302 25.0169 94.2869 24.7151 94.4316 24.3572L95.98 24.3572ZM90.4676 21.9928H94.4393C94.454 21.7306 94.4141 21.4683 94.3223 21.2223C94.2304 20.9762 94.0886 20.7517 93.9056 20.5629C93.7226 20.3741 93.5025 20.2251 93.259 20.1252C93.0155 20.0252 92.754 19.9765 92.4908 19.9822C92.2252 19.9806 91.962 20.0315 91.7163 20.1319C91.4705 20.2323 91.2472 20.3802 91.0591 20.5671C90.871 20.7541 90.7219 20.9763 90.6204 21.221C90.5189 21.4657 90.467 21.728 90.4676 21.9928Z" fill="white"/>
<path d="M33.1908 7.63971C33.5327 7.61525 33.8758 7.66675 34.1953 7.79051C34.5147 7.91426 34.8027 8.10718 35.0384 8.35535C35.2741 8.60352 35.4516 8.90076 35.5581 9.22562C35.6646 9.55048 35.6975 9.89487 35.6544 10.2339C35.6544 11.9019 34.7504 12.8607 33.1908 12.8607H31.2997V7.63971H33.1908ZM32.1129 12.1223H33.1C33.3443 12.1369 33.5888 12.097 33.8156 12.0054C34.0425 11.9139 34.246 11.7731 34.4114 11.5932C34.5768 11.4133 34.6999 11.1989 34.7717 10.9656C34.8436 10.7323 34.8623 10.486 34.8266 10.2446C34.8597 10.0041 34.8391 9.75931 34.7661 9.52773C34.6932 9.29615 34.5698 9.08352 34.4048 8.90508C34.2398 8.72664 34.0372 8.58681 33.8116 8.4956C33.5861 8.4044 33.343 8.36407 33.1 8.37752H32.1129V12.1223Z" fill="white"/>
<path d="M36.573 10.8886C36.5482 10.6296 36.5779 10.3684 36.6602 10.1216C36.7426 9.87477 36.8757 9.64785 37.0512 9.45536C37.2266 9.26288 37.4405 9.10908 37.679 9.00384C37.9175 8.8986 38.1755 8.84424 38.4363 8.84424C38.6972 8.84424 38.9551 8.8986 39.1937 9.00384C39.4322 9.10908 39.6461 9.26288 39.8215 9.45536C39.9969 9.64785 40.1301 9.87477 40.2124 10.1216C40.2948 10.3684 40.3245 10.6296 40.2996 10.8886C40.325 11.1478 40.2956 11.4094 40.2135 11.6566C40.1314 11.9038 39.9983 12.1311 39.8228 12.324C39.6473 12.5169 39.4333 12.671 39.1945 12.7764C38.9557 12.8819 38.6975 12.9364 38.4363 12.9364C38.1752 12.9364 37.9169 12.8819 37.6781 12.7764C37.4394 12.671 37.2254 12.5169 37.0499 12.324C36.8744 12.1311 36.7413 11.9038 36.6592 11.6566C36.5771 11.4094 36.5477 11.1478 36.573 10.8886ZM39.4976 10.8886C39.4976 10.0345 39.1128 9.53506 38.4376 9.53506C37.7598 9.53506 37.3785 10.0345 37.3785 10.8886C37.3785 11.7495 37.7598 12.2451 38.4376 12.2451C39.1129 12.2451 39.4976 11.7461 39.4976 10.8886Z" fill="white"/>
<path d="M45.2533 12.8605H44.4444L43.6277 9.95861H43.566L42.7529 12.8605H41.9517L40.8625 8.92041H41.6535L42.3613 11.9269H42.4195L43.2319 8.92041H43.9799L44.7923 11.9269H44.854L45.5583 8.92041H46.3381L45.2533 12.8605Z" fill="white"/>
<path d="M47.2542 8.92027H48.0048V9.54618H48.0631C48.1619 9.32137 48.3286 9.13292 48.54 9.00709C48.7513 8.88126 48.9968 8.82432 49.2421 8.84421C49.4344 8.8298 49.6274 8.8587 49.807 8.92879C49.9865 8.99887 50.1479 9.10834 50.2792 9.24908C50.4106 9.38981 50.5085 9.55822 50.5657 9.74181C50.6229 9.9254 50.638 10.1195 50.6097 10.3097V12.8603H49.83V10.5049C49.83 9.87175 49.5541 9.55686 48.9774 9.55686C48.8468 9.5508 48.7165 9.57295 48.5954 9.62181C48.4743 9.67066 48.3651 9.74505 48.2755 9.83989C48.1859 9.93473 48.1179 10.0478 48.0762 10.1713C48.0345 10.2947 48.0201 10.4258 48.0339 10.5553V12.8603H47.2542L47.2542 8.92027Z" fill="white"/>
<path d="M51.8522 7.38232H52.6319V12.8605H51.8522V7.38232Z" fill="white"/>
<path d="M53.7159 10.8886C53.6911 10.6297 53.7208 10.3684 53.8032 10.1216C53.8856 9.8748 54.0187 9.64786 54.1942 9.45537C54.3697 9.26289 54.5835 9.10909 54.8221 9.00385C55.0606 8.8986 55.3186 8.84424 55.5795 8.84424C55.8403 8.84424 56.0983 8.8986 56.3369 9.00385C56.5754 9.10909 56.7893 9.26289 56.9647 9.45537C57.1402 9.64786 57.2734 9.8748 57.3557 10.1216C57.4381 10.3684 57.4678 10.6297 57.443 10.8886C57.4683 11.1478 57.4389 11.4095 57.3567 11.6567C57.2746 11.9039 57.1415 12.1312 56.966 12.3241C56.7905 12.5169 56.5765 12.671 56.3377 12.7765C56.0989 12.882 55.8406 12.9364 55.5795 12.9364C55.3183 12.9364 55.06 12.882 54.8213 12.7765C54.5825 12.671 54.3684 12.5169 54.1929 12.3241C54.0174 12.1312 53.8843 11.9039 53.8022 11.6567C53.72 11.4095 53.6907 11.1478 53.7159 10.8886ZM56.6405 10.8886C56.6405 10.0346 56.2558 9.53513 55.5805 9.53513C54.9027 9.53513 54.5215 10.0346 54.5215 10.8887C54.5215 11.7496 54.9028 12.2452 55.5805 12.2452C56.2558 12.2451 56.6405 11.7461 56.6405 10.8886Z" fill="white"/>
<path d="M58.2639 11.7461C58.2639 11.0369 58.7935 10.628 59.7335 10.5699L60.8037 10.5084V10.1683C60.8037 9.75213 60.5278 9.51715 59.9948 9.51715C59.5595 9.51715 59.2579 9.67651 59.1714 9.95508H58.4164C58.4961 9.27832 59.1345 8.84424 60.0308 8.84424C61.0214 8.84424 61.5801 9.33599 61.5801 10.1683V12.8603H60.8294V12.3066H60.7678C60.6425 12.5053 60.4667 12.6672 60.2582 12.7759C60.0497 12.8845 59.816 12.9361 59.581 12.9253C59.4151 12.9425 59.2474 12.9248 59.0888 12.8735C58.9302 12.8221 58.7842 12.7382 58.6601 12.6271C58.536 12.516 58.4366 12.3802 58.3684 12.2284C58.3002 12.0767 58.2646 11.9124 58.2639 11.7461ZM60.8037 11.4094V11.08L59.8389 11.1415C59.2948 11.1778 59.048 11.3624 59.048 11.7098C59.048 12.0644 59.3564 12.2707 59.7806 12.2707C59.9049 12.2833 60.0305 12.2708 60.1498 12.2339C60.2692 12.1971 60.3798 12.1367 60.4753 12.0564C60.5708 11.976 60.649 11.8773 60.7054 11.7662C60.7619 11.655 60.7953 11.5337 60.8037 11.4094Z" fill="white"/>
<path d="M62.6049 10.8887C62.6049 9.64375 63.2467 8.85505 64.2449 8.85505C64.4919 8.84371 64.7369 8.90269 64.9515 9.02509C65.1661 9.1475 65.3413 9.32828 65.4566 9.5463H65.5149V7.38232H66.2946V12.8605H65.5474V12.238H65.4857C65.3615 12.4545 65.1802 12.6331 64.9615 12.7542C64.7428 12.8754 64.495 12.9346 64.245 12.9254C63.2398 12.9254 62.6049 12.1367 62.6049 10.8887ZM63.4104 10.8887C63.4104 11.7244 63.8054 12.2273 64.4661 12.2273C65.1233 12.2273 65.5295 11.7172 65.5295 10.8922C65.5295 10.071 65.119 9.5536 64.4661 9.5536C63.8097 9.5536 63.4104 10.0599 63.4104 10.8887Z" fill="white"/>
<path d="M69.5209 10.8886C69.4961 10.6296 69.5258 10.3684 69.6081 10.1216C69.6904 9.87477 69.8236 9.64785 69.999 9.45536C70.1745 9.26288 70.3883 9.10908 70.6269 9.00384C70.8654 8.8986 71.1234 8.84424 71.3842 8.84424C71.645 8.84424 71.903 8.8986 72.1415 9.00384C72.3801 9.10908 72.5939 9.26288 72.7694 9.45536C72.9448 9.64785 73.078 9.87477 73.1603 10.1216C73.2427 10.3684 73.2724 10.6296 73.2475 10.8886C73.2728 11.1478 73.2435 11.4094 73.1614 11.6566C73.0792 11.9038 72.9462 12.1311 72.7707 12.324C72.5952 12.5169 72.3812 12.671 72.1424 12.7764C71.9036 12.8819 71.6454 12.9364 71.3842 12.9364C71.1231 12.9364 70.8648 12.8819 70.626 12.7764C70.3872 12.671 70.1732 12.5169 69.9977 12.324C69.8223 12.1311 69.6892 11.9038 69.6071 11.6566C69.5249 11.4094 69.4956 11.1478 69.5209 10.8886ZM72.4455 10.8886C72.4455 10.0345 72.0607 9.53506 71.3855 9.53506C70.7077 9.53506 70.3264 10.0345 70.3264 10.8886C70.3264 11.7495 70.7077 12.2451 71.3855 12.2451C72.0607 12.2451 72.4455 11.7461 72.4455 10.8886Z" fill="white"/>
<path d="M74.2937 8.92027H75.0443V9.54618H75.1026C75.2015 9.32137 75.3682 9.13292 75.5795 9.00709C75.7909 8.88126 76.0363 8.82432 76.2817 8.84421C76.4739 8.8298 76.667 8.8587 76.8465 8.92879C77.026 8.99887 77.1874 9.10834 77.3188 9.24908C77.4501 9.38981 77.548 9.55822 77.6052 9.74181C77.6625 9.9254 77.6775 10.1195 77.6493 10.3097V12.8603H76.8695V10.5049C76.8695 9.87175 76.5936 9.55686 76.0169 9.55686C75.8864 9.5508 75.7561 9.57295 75.6349 9.62181C75.5138 9.67066 75.4047 9.74505 75.3151 9.83989C75.2255 9.93473 75.1575 10.0478 75.1158 10.1713C75.0741 10.2947 75.0596 10.4258 75.0735 10.5553V12.8603H74.2937V8.92027Z" fill="white"/>
<path d="M82.0555 7.93945V8.93835H82.9115V9.59333H82.0555V11.6193C82.0555 12.032 82.226 12.2128 82.6141 12.2128C82.7135 12.2125 82.8128 12.2065 82.9115 12.1948V12.8425C82.7715 12.8675 82.6296 12.8808 82.4873 12.8823C81.6202 12.8823 81.2748 12.5781 81.2748 11.8184V9.59329H80.6476V8.93832H81.2748V7.93945H82.0555Z" fill="white"/>
<path d="M83.9767 7.38232H84.7496V9.55359H84.8113C84.9149 9.32669 85.0862 9.13717 85.3018 9.01087C85.5174 8.88456 85.7668 8.82761 86.016 8.84778C86.2073 8.8374 86.3985 8.86925 86.576 8.94103C86.7535 9.01282 86.9129 9.12278 87.0428 9.26308C87.1728 9.40337 87.2701 9.57054 87.3279 9.75266C87.3856 9.93478 87.4023 10.1274 87.3768 10.3167V12.8605H86.5962V10.5085C86.5962 9.87915 86.3023 9.56042 85.7513 9.56042C85.6173 9.54946 85.4825 9.56783 85.3564 9.61425C85.2302 9.66067 85.1157 9.73402 85.021 9.82917C84.9262 9.92431 84.8534 10.039 84.8078 10.1651C84.7621 10.2912 84.7446 10.4257 84.7565 10.5593V12.8605H83.9767L83.9767 7.38232Z" fill="white"/>
<path d="M91.9235 11.7966C91.8175 12.1567 91.588 12.4682 91.275 12.6765C90.962 12.8849 90.5855 12.9769 90.2114 12.9365C89.9511 12.9433 89.6924 12.8936 89.4533 12.7908C89.2142 12.6879 89.0004 12.5344 88.8267 12.3409C88.6531 12.1474 88.5237 11.9186 88.4477 11.6702C88.3716 11.4219 88.3506 11.16 88.3862 10.9028C88.3516 10.6448 88.3729 10.3823 88.4488 10.1332C88.5247 9.88413 88.6534 9.65421 88.8261 9.45902C88.9988 9.26383 89.2116 9.10793 89.45 9.00188C89.6884 8.89582 89.9469 8.84208 90.208 8.8443C91.3074 8.8443 91.9706 9.5933 91.9706 10.8306V11.1019H89.1806V11.1455C89.1684 11.29 89.1866 11.4356 89.2341 11.5727C89.2816 11.7099 89.3573 11.8356 89.4563 11.9419C89.5554 12.0482 89.6757 12.1326 89.8094 12.1899C89.9431 12.2471 90.0873 12.2758 90.2328 12.2742C90.4194 12.2965 90.6083 12.263 90.7757 12.178C90.9431 12.0929 91.0813 11.9602 91.1728 11.7965L91.9235 11.7966ZM89.1805 10.5268H91.1762C91.1861 10.3946 91.1681 10.2617 91.1233 10.1369C91.0786 10.012 91.0082 9.89781 90.9166 9.80168C90.825 9.70556 90.7143 9.6296 90.5915 9.5787C90.4687 9.5278 90.3366 9.50307 90.2037 9.50611C90.0688 9.50442 89.935 9.52967 89.81 9.58037C89.6851 9.63107 89.5716 9.7062 89.4763 9.80133C89.3809 9.89645 89.3057 10.0096 89.2549 10.1342C89.2041 10.2588 89.1788 10.3923 89.1805 10.5268Z" fill="white"/>
</g>
<defs>
<clipPath id="clip0_52_10">
<rect width="105" height="35" fill="white"/>
</clipPath>
</defs>
</svg>
